<svg width="12" height="12" viewBox="0 0 12 12" fill="none" xmlns="http://www.w3.org/2000/svg">
<path d="M6.66665 3.07713H8.66665V1.91669H10.67C11.4045 1.91669 12 2.43567 12 3.07363V10.0431C12 10.6821 11.4049 11.2 10.67 11.2H1.33002C0.59554 11.2 0 10.681 0 10.0431V3.07363C0 2.4347 0.595083 1.91669 1.33002 1.91669H3.33336V3.07713H5.33335V0.580745C5.33335 0.260024 5.6292 0 5.99997 0C6.36817 0 6.6666 0.257985 6.6666 0.580745L6.66665 3.07713ZM5.33335 3.07713H1.33342V10.0396H10.6665V3.07713H6.66654V6.02723L7.41954 5.37189C7.67746 5.14742 8.09588 5.14751 8.35805 5.37568C8.61831 5.60229 8.61686 5.97099 8.3624 6.19247L6.46809 7.84111C6.33975 7.95272 6.1719 8.00886 6.00324 8.00896L5.99811 8.00721C5.8288 8.00692 5.66051 7.95126 5.53394 7.84111L3.63963 6.19247C3.38171 5.968 3.38182 5.60385 3.64398 5.37568C3.90425 5.14907 4.32792 5.15043 4.58238 5.37189L5.33326 6.02539L5.33335 3.07713Z" fill="white"/>
</svg>
