<svg width="12" height="12" viewBox="0 0 12 12" fill="none" xmlns="http://www.w3.org/2000/svg">
<path d="M6.66665 3.57713H8.66665V2.41669H10.67C11.4045 2.41669 12 2.93567 12 3.57363V10.5431C12 11.1821 11.4049 11.7 10.67 11.7H1.33002C0.59554 11.7 0 11.181 0 10.5431V3.57363C0 2.9347 0.595083 2.41669 1.33002 2.41669H3.33336V3.57713H5.33335V1.08074C5.33335 0.760024 5.6292 0.5 5.99997 0.5C6.36817 0.5 6.6666 0.757985 6.6666 1.08074L6.66665 3.57713ZM5.33335 3.57713H1.33342V10.5396H10.6665V3.57713H6.66654V6.52723L7.41954 5.87189C7.67746 5.64742 8.09588 5.64751 8.35805 5.87568C8.61831 6.10229 8.61686 6.47099 8.3624 6.69247L6.46809 8.34111C6.33975 8.45272 6.1719 8.50886 6.00324 8.50896L5.99811 8.50721C5.8288 8.50692 5.66051 8.45126 5.53394 8.34111L3.63963 6.69247C3.38171 6.468 3.38182 6.10385 3.64398 5.87568C3.90425 5.64907 4.32792 5.65043 4.58238 5.87189L5.33326 6.52539L5.33335 3.57713Z" fill="#042A4B"/>
</svg>
