<svg width="45" height="70" viewBox="0 0 45 70" fill="none" xmlns="http://www.w3.org/2000/svg">
<path d="M16.7559 5.06595V26.8424L16.7551 52.5607L10.2038 46.86C7.9837 44.9282 4.28722 44.9163 2.01642 46.8931C-0.270913 48.8835 -0.271888 52.0601 1.97844 54.0182L18.506 68.3996C19.6103 69.3604 21.0786 69.8459 22.5558 69.8485L22.6006 69.8637C24.0721 69.8629 25.5366 69.3731 26.6564 68.3996L43.184 54.0182C45.4041 52.0862 45.4168 48.8699 43.146 46.8931C40.8586 44.9028 37.2079 44.9019 34.9576 46.86L28.3878 52.5767L28.3888 26.8424L28.3883 5.06595C28.3883 2.25045 25.7846 0 22.5721 0C19.3372 0 16.7559 2.26824 16.7559 5.06595Z" fill="white"/>
</svg>
