<svg width="11" height="13" viewBox="0 0 11 13" fill="none" xmlns="http://www.w3.org/2000/svg">
<path d="M7.80151 1.02623L7.80153 1.02625C7.88268 1.10198 7.97499 1.14567 8.03543 1.16909C8.09884 1.19365 8.19512 1.22216 8.30487 1.22216H10.4168L10.4168 1.66675H0.583496V1.22216H2.69546C2.79849 1.22216 2.89109 1.19691 2.95603 1.1727C3.01903 1.14922 3.11424 1.10517 3.19882 1.02623L3.63172 0.622209C3.64859 0.606458 3.69936 0.571616 3.77935 0.540617C3.85877 0.509839 3.9228 0.5 3.95072 0.5H7.04961C7.07415 0.5 7.13835 0.509612 7.22049 0.54142C7.30324 0.573466 7.35402 0.60859 7.36861 0.622209L7.80151 1.02623ZM9.64322 12.5H1.35709V3.38881H9.64322V12.5Z" stroke="#042A4B"/>
</svg>
