<svg width="8" height="8" viewBox="0 0 8 8" fill="none" xmlns="http://www.w3.org/2000/svg">
<path d="M7.40338 0H3.94306C3.60613 0 3.33395 0.271891 3.33395 0.608415C3.33395 0.944961 3.60615 1.21683 3.94306 1.21683H5.913L0.184697 6.95146C-0.0615656 7.19744 -0.0615656 7.5728 0.184697 7.81877C0.301316 7.93526 0.456903 8 0.612376 8C0.767849 8 0.923439 7.93526 1.04006 7.81877L6.78132 2.09709V4.06475C6.78132 4.4013 7.05353 4.67316 7.39044 4.67316C7.72735 4.67316 7.99956 4.40127 7.99956 4.06475V0.608438C8.01249 0.271891 7.74029 2.31254e-05 7.40335 2.31254e-05L7.40338 0Z" fill="#042A4B"/>
</svg>
